<?xml version="1.0" standalone="no"?>
<!DOCTYPE svg PUBLIC "-//W3C//DTD SVG 20010904//EN"
 "http://www.w3.org/TR/2001/REC-SVG-20010904/DTD/svg10.dtd">
<svg version="1.0" xmlns="http://www.w3.org/2000/svg"
 width="1191.000000pt" height="842.000000pt" viewBox="0 0 1191.000000 842.000000"
 preserveAspectRatio="xMidYMid meet">
<metadata>
Created by potrace 1.15, written by Peter Selinger 2001-2017
</metadata>
<g transform="translate(0.000000,842.000000) scale(0.100000,-0.100000)"
fill="#000000" stroke="none">
<path d="M9100 8313 c-48 -7 -145 -46 -186 -74 -56 -38 -111 -102 -137 -157
-17 -38 -21 -66 -22 -147 0 -90 3 -106 28 -157 51 -105 153 -177 379 -268 172
-70 243 -155 236 -281 -3 -52 -10 -77 -34 -115 -81 -133 -318 -161 -532 -63
-36 16 -66 28 -68 27 -2 -3 -44 -138 -44 -144 0 -2 18 -13 39 -23 115 -59 325
-85 466 -57 112 22 192 64 258 136 75 81 100 146 100 265 0 123 -25 187 -103
265 -59 59 -58 59 -361 204 -133 63 -189 130 -189 225 0 90 71 179 166 207 83
24 216 15 308 -20 38 -15 73 -23 77 -19 3 5 15 33 24 63 10 30 20 60 22 66 5
14 -63 40 -153 59 -63 13 -213 18 -274 8z"/>
<path d="M2508 8301 c-42 -5 -92 -11 -112 -15 l-36 -7 0 -705 c0 -662 1 -705
18 -712 9 -4 116 -7 237 -7 239 0 327 13 430 61 168 78 254 258 214 444 -22
105 -130 219 -241 256 l-52 17 55 28 c65 32 132 97 162 153 29 58 35 186 12
257 -33 100 -150 189 -285 219 -69 15 -300 21 -402 11z m337 -146 c117 -30
175 -96 183 -207 8 -105 -48 -185 -163 -234 -30 -13 -77 -19 -183 -22 l-142
-4 2 233 3 233 25 7 c47 13 215 9 275 -6z m65 -641 c112 -54 163 -127 164
-239 2 -120 -62 -210 -180 -255 -63 -24 -248 -39 -318 -26 l-36 7 0 276 0 275
153 -4 c145 -3 155 -5 217 -34z"/>
<path d="M3628 8300 c-42 -4 -92 -10 -112 -14 l-36 -7 0 -709 0 -710 90 0 90
0 0 316 0 317 123 -5 c142 -6 207 -27 258 -86 44 -50 63 -101 109 -290 22 -92
47 -186 56 -209 l16 -43 93 0 94 0 -20 58 c-11 31 -40 137 -64 234 -62 252
-94 314 -188 368 l-49 28 51 26 c75 37 115 71 155 129 49 72 70 153 63 241 -7
92 -20 134 -60 192 -99 143 -319 197 -669 164z m333 -144 c121 -28 189 -92
211 -199 24 -115 -22 -224 -120 -283 -66 -40 -138 -54 -279 -54 l-113 0 2 267
3 268 30 6 c54 12 209 9 266 -5z"/>
<path d="M5220 8299 c-47 -4 -104 -11 -127 -14 l-43 -6 0 -704 c0 -494 3 -706
11 -711 6 -3 104 -8 217 -11 301 -7 487 27 638 118 129 78 239 234 285 405 29
107 32 347 6 444 -63 232 -227 396 -452 454 -132 34 -341 44 -535 25z m427
-155 c265 -67 405 -274 389 -574 -3 -58 -12 -132 -21 -165 -53 -205 -193 -341
-403 -392 -70 -17 -346 -24 -370 -9 -9 5 -12 140 -12 576 l0 569 53 5 c28 3
66 8 82 10 53 7 222 -4 282 -20z"/>
<path d="M6936 8294 c-279 -62 -465 -230 -548 -494 -20 -65 -23 -95 -23 -230
0 -180 12 -238 77 -370 76 -157 224 -275 408 -327 52 -14 101 -18 250 -18 187
1 219 5 378 51 l52 15 0 344 0 345 -235 0 -235 0 0 -70 0 -69 148 -3 147 -3 3
-213 2 -213 -37 -16 c-50 -22 -276 -30 -357 -13 -90 18 -205 81 -265 145 -158
167 -198 485 -90 713 39 82 132 180 208 221 158 84 416 96 593 26 l36 -14 22
71 c12 39 18 74 13 79 -4 4 -42 17 -83 29 -101 29 -361 37 -464 14z"/>
<path d="M4590 7580 l0 -720 90 0 90 0 0 720 0 720 -90 0 -90 0 0 -720z"/>
<path d="M7780 7580 l0 -720 405 0 405 0 0 75 0 75 -315 0 -315 0 2 263 3 262
278 3 277 2 0 75 0 75 -280 0 -280 0 0 230 0 230 295 0 295 0 0 75 0 75 -385
0 -385 0 0 -720z"/>
<path d="M5721 6370 c-332 -28 -644 -103 -921 -222 -142 -61 -285 -138 -273
-147 4 -4 37 -28 73 -53 161 -112 296 -310 359 -523 28 -96 51 -245 51 -332
l0 -73 -715 0 -715 0 -14 -22 c-8 -13 -37 -73 -64 -134 -147 -330 -234 -700
-249 -1061 l-6 -153 2732 -2 c1503 -2 2734 -1 2736 2 7 12 -15 360 -30 472
-105 817 -488 1463 -1093 1845 -320 202 -723 335 -1172 388 -161 19 -553 27
-699 15z"/>
<path d="M1350 4706 l0 -1056 540 0 541 0 -6 103 c-40 709 -223 1196 -614
1636 -105 117 -375 340 -445 367 -15 6 -16 -88 -16 -1050z"/>
<path d="M9836 4893 c-165 -330 -254 -691 -281 -1135 l-7 -108 501 0 501 0 0
665 0 665 -335 0 -335 0 -44 -87z"/>
<path d="M5467 2130 c-91 -23 -185 -97 -226 -179 -66 -128 -68 -330 -6 -451
68 -132 187 -198 340 -188 211 14 345 178 345 422 0 78 -24 179 -55 231 -32
55 -106 122 -162 147 -52 23 -177 33 -236 18z m165 -86 c185 -63 243 -386 103
-570 -35 -46 -117 -84 -179 -84 -64 0 -142 35 -180 81 -66 78 -96 204 -77 320
33 202 173 308 333 253z"/>
<path d="M4450 1725 l0 -405 50 0 50 0 0 190 0 190 200 0 200 0 0 -190 0 -190
50 0 50 0 0 405 0 405 -50 0 -50 0 0 -170 0 -170 -200 0 -200 0 0 170 0 170
-50 0 -50 0 0 -405z"/>
<path d="M6096 2118 c-2 -7 -14 -161 -25 -343 -12 -181 -25 -358 -28 -393 l-6
-63 49 3 49 3 8 125 c4 69 13 226 20 350 12 206 14 221 25 180 7 -25 56 -180
110 -345 l98 -300 43 0 43 0 89 245 c49 135 104 290 121 345 l32 100 12 -225
c6 -124 15 -282 19 -352 l7 -128 50 0 50 0 -6 73 c-7 76 -46 697 -46 723 0 12
-13 14 -66 12 l-66 -3 -88 -240 c-48 -132 -97 -276 -110 -320 -13 -44 -26 -84
-30 -88 -4 -4 -16 27 -28 70 -12 43 -61 192 -109 330 l-88 253 -63 0 c-41 0
-64 -4 -66 -12z"/>
<path d="M7020 1725 l0 -405 225 0 225 0 0 40 0 40 -172 2 -173 3 0 145 0 145
158 3 157 3 0 39 0 39 -157 3 -158 3 -3 128 -3 127 171 0 170 0 0 45 0 45
-220 0 -220 0 0 -405z"/>
<path d="M4811 845 c-67 -19 -104 -42 -158 -97 -86 -88 -127 -239 -106 -386
15 -103 42 -162 103 -226 75 -79 130 -101 255 -101 89 0 106 3 157 28 73 36
149 119 179 195 20 49 23 75 24 192 0 127 -2 138 -28 194 -41 89 -88 140 -161
176 -78 39 -181 48 -265 25z m214 -99 c50 -30 93 -86 121 -161 27 -72 25 -220
-4 -295 -72 -185 -272 -239 -401 -109 -86 85 -116 254 -71 400 18 59 30 81 73
123 29 29 68 57 87 64 55 18 143 8 195 -22z"/>
<path d="M9327 846 c-98 -27 -160 -106 -160 -205 0 -102 55 -164 201 -225 123
-51 162 -92 162 -169 0 -49 -34 -96 -87 -119 -57 -25 -148 -20 -220 12 -25 11
-47 20 -48 20 -5 0 -25 -62 -25 -76 0 -21 123 -54 199 -54 174 0 281 87 281
230 0 111 -54 174 -199 235 -111 47 -148 75 -161 125 -29 107 85 184 221 147
30 -8 61 -17 70 -21 12 -5 18 2 27 31 14 46 4 57 -70 72 -64 14 -131 13 -191
-3z"/>
<path d="M2290 445 l0 -405 50 0 50 0 0 405 0 405 -50 0 -50 0 0 -405z"/>
<path d="M2546 788 c-3 -35 -15 -200 -26 -368 -11 -168 -22 -322 -24 -342 l-4
-38 49 0 c47 0 49 1 49 28 0 15 7 126 15 247 8 121 15 264 15 318 0 53 4 97 8
97 5 0 14 -24 21 -52 7 -29 56 -182 109 -340 l95 -288 41 0 41 0 59 163 c32
89 87 244 121 345 l63 183 6 -93 c3 -51 10 -199 16 -328 6 -129 13 -245 16
-257 4 -20 11 -23 49 -23 42 0 45 2 45 28 0 47 -41 715 -46 750 l-5 32 -62 0
-63 0 -74 -202 c-41 -112 -93 -261 -116 -333 -23 -72 -44 -123 -47 -115 -33
106 -144 442 -177 533 l-42 117 -63 0 -63 0 -6 -62z"/>
<path d="M3458 843 l-38 -4 0 -400 0 -399 50 0 50 0 0 159 0 158 98 5 c196 10
291 91 292 251 0 79 -15 120 -61 164 -57 54 -100 66 -234 69 -66 1 -137 0
-157 -3z m269 -93 c62 -28 85 -70 81 -147 -7 -113 -63 -158 -198 -158 l-85 0
-3 163 -2 162 82 0 c60 0 95 -6 125 -20z"/>
<path d="M4038 843 l-38 -4 0 -400 0 -399 50 0 50 0 0 175 0 175 70 0 c78 0
116 -14 149 -56 21 -27 29 -51 72 -212 l21 -82 54 0 53 0 -13 38 c-8 20 -23
80 -36 133 -25 111 -52 165 -97 195 l-33 22 29 12 c99 41 150 182 102 285 -42
91 -101 118 -271 121 -69 1 -142 0 -162 -3z m272 -91 c107 -52 107 -205 0
-259 -35 -18 -61 -23 -127 -23 l-83 0 0 149 0 150 33 4 c53 8 140 -3 177 -21z"/>
<path d="M5270 844 c0 -3 59 -186 131 -406 l130 -399 57 3 57 3 137 385 c76
212 140 393 143 403 6 15 -1 17 -49 17 -31 0 -56 -1 -56 -3 0 -1 -47 -143
-105 -315 -57 -171 -107 -328 -111 -348 -8 -43 -18 -35 -33 31 -7 28 -53 182
-103 343 l-92 292 -53 0 c-29 0 -53 -3 -53 -6z"/>
<path d="M5960 445 l0 -405 225 0 225 0 0 40 0 40 -172 2 -173 3 -3 148 -3
147 161 0 160 0 0 40 0 40 -160 0 -160 0 0 130 0 130 165 0 165 0 0 45 0 45
-215 0 -215 0 0 -405z"/>
<path d="M6526 788 c-4 -35 -15 -196 -26 -358 -11 -162 -22 -316 -24 -342 l-5
-48 49 0 c48 0 50 1 50 28 0 15 7 131 15 257 8 127 15 272 15 323 0 94 12 115
25 45 3 -21 51 -174 106 -340 l100 -303 42 0 42 0 64 178 c36 97 90 253 122
346 l57 169 6 -124 c4 -68 12 -225 19 -349 l12 -225 48 -3 c40 -3 47 0 47 15
0 38 -41 710 -46 751 l-5 42 -63 0 -63 0 -95 -262 c-52 -145 -103 -293 -113
-331 -10 -37 -21 -67 -24 -67 -4 0 -15 33 -25 73 -10 39 -58 187 -107 326 -49
140 -89 256 -89 258 0 2 -29 3 -64 3 l-64 0 -6 -62z"/>
<path d="M7400 445 l0 -405 225 0 225 0 0 40 0 40 -175 0 -175 0 0 150 0 150
155 0 155 0 0 40 0 40 -155 0 -155 0 0 130 0 130 165 0 165 0 0 45 0 45 -215
0 -215 0 0 -405z"/>
<path d="M7930 445 l0 -405 45 0 46 0 -3 340 c-2 187 -2 340 -2 340 1 0 29
-48 62 -107 34 -60 125 -211 204 -338 l144 -230 52 -3 52 -3 0 405 0 406 -46
0 -46 0 4 -335 c2 -184 3 -335 2 -335 -1 0 -20 37 -44 83 -24 45 -115 196
-202 335 l-160 252 -54 0 -54 0 0 -405z"/>
<path d="M8570 805 l0 -45 120 0 120 0 0 -360 0 -360 50 0 50 0 0 360 0 360
125 0 125 0 0 45 0 45 -295 0 -295 0 0 -45z"/>
</g>
</svg>
