<?xml version="1.0" encoding="utf-8"?>
<!-- Generator: Adobe Illustrator 23.0.1, SVG Export Plug-In . SVG Version: 6.00 Build 0)  -->
<svg version="1.1" id="Layer_1" xmlns="http://www.w3.org/2000/svg" xmlns:xlink="http://www.w3.org/1999/xlink" x="0px" y="0px"
	 viewBox="0 0 1190.55 841.89" style="enable-background:new 0 0 1190.55 841.89;" xml:space="preserve">
<style type="text/css">
	.st0{fill:#666666;}
	.st1{font-family:'Gotham-Medium';}
	.st2{font-size:120px;}
	.st3{letter-spacing:-6;}
	.st4{font-family:'Gotham-Book';}
	.st5{font-size:214px;}
	.st6{fill:#4B84A5;}
	.st7{fill:#589DC0;}
	.st8{fill:#573A76;}
</style>
<g>
	<text transform="matrix(1 0 0 1 435.7822 709.999)"><tspan x="0" y="0" class="st0 st1 st2">HOME</tspan><tspan x="-216.54" y="128" class="st0 st1 st2 st3">IMPROVEMENTS</tspan></text>
</g>
<g>
	<text transform="matrix(1 0 0 1 207.0933 155.999)" class="st0 st4 st5">BRIDGES</text>
</g>
<g>
	<path class="st6" d="M988.08,343.31c-21.54,39.42-33,85.29-33,134.24h100.5V343.31H988.08z"/>
	<path class="st7" d="M1015.52,303.02c-10.44,12.47-19.61,25.95-27.44,40.29h67.49v-78.36
		C1040.67,276.2,1027.29,288.96,1015.52,303.02z"/>
	<path class="st8" d="M242.61,477.54c0-89.09-34.29-167.43-107.99-212.6V440.3L242.61,477.54z"/>
	<polygon class="st6" points="134.61,432.19 134.61,477.54 242.61,477.54 	"/>
	<g>
		<path class="st6" d="M357.46,339.77c-21.54,40.46-33,87.53-33,137.77h547.09l-370-137.77H357.46z"/>
		<path class="st8" d="M598,204c-56.68,0-105.95,13.63-146.48,37.37c34.19,19.56,50.02,56.3,50.02,98.4l370,137.77
			C871.54,326.47,787,204,598,204z"/>
		<path class="st7" d="M451.52,241.37c-25.91,15.18-48.23,34.5-66.61,57.05c-10.44,12.8-19.61,26.63-27.44,41.35h144.08
			C501.54,297.67,485.7,260.93,451.52,241.37z"/>
	</g>
	<rect x="134.61" y="477.49" class="st7" width="920.95" height="102.59"/>
</g>
</svg>
